<svg xmlns="http://www.w3.org/2000/svg" viewBox="0 0 200 200" role="img" aria-label="QRIS placeholder">
  <rect width="200" height="200" fill="#fff"/>
  <rect x="8" y="8" width="56" height="56" fill="#111"/>
  <rect x="16" y="16" width="40" height="40" fill="#fff"/>
  <rect x="24" y="24" width="24" height="24" fill="#111"/>
  <rect x="136" y="8" width="56" height="56" fill="#111"/>
  <rect x="144" y="16" width="40" height="40" fill="#fff"/>
  <rect x="152" y="24" width="24" height="24" fill="#111"/>
  <rect x="8" y="136" width="56" height="56" fill="#111"/>
  <rect x="16" y="144" width="40" height="40" fill="#fff"/>
  <rect x="24" y="152" width="24" height="24" fill="#111"/>
  <g fill="#111">
    <rect x="80" y="16" width="8" height="8"/><rect x="96" y="16" width="8" height="8"/><rect x="112" y="16" width="8" height="8"/>
    <rect x="80" y="32" width="8" height="8"/><rect x="104" y="32" width="8" height="8"/><rect x="120" y="32" width="8" height="8"/>
    <rect x="88" y="48" width="8" height="8"/><rect x="112" y="48" width="8" height="8"/><rect x="128" y="48" width="8" height="8"/>
    <rect x="80" y="80" width="8" height="8"/><rect x="96" y="88" width="8" height="8"/><rect x="112" y="80" width="8" height="8"/>
    <rect x="128" y="88" width="8" height="8"/><rect x="144" y="80" width="8" height="8"/><rect x="160" y="88" width="8" height="8"/>
    <rect x="176" y="80" width="8" height="8"/><rect x="80" y="104" width="8" height="8"/><rect x="104" y="112" width="8" height="8"/>
    <rect x="136" y="104" width="8" height="8"/><rect x="160" y="112" width="8" height="8"/><rect x="176" y="104" width="8" height="8"/>
    <rect x="80" y="128" width="8" height="8"/><rect x="96" y="136" width="8" height="8"/><rect x="120" y="128" width="8" height="8"/>
    <rect x="144" y="136" width="8" height="8"/><rect x="168" y="128" width="8" height="8"/><rect x="184" y="136" width="8" height="8"/>
    <rect x="80" y="152" width="8" height="8"/><rect x="104" y="160" width="8" height="8"/><rect x="128" y="152" width="8" height="8"/>
    <rect x="152" y="160" width="8" height="8"/><rect x="176" y="152" width="8" height="8"/><rect x="80" y="176" width="8" height="8"/>
    <rect x="96" y="184" width="8" height="8"/><rect x="120" y="176" width="8" height="8"/><rect x="144" y="184" width="8" height="8"/>
    <rect x="168" y="176" width="8" height="8"/><rect x="184" y="184" width="8" height="8"/>
  </g>
  <text x="100" y="108" text-anchor="middle" fill="#503b31" font-family="Segoe UI, sans-serif" font-size="11" font-weight="600">QRIS</text>
</svg>
