<?xml version="1.0" encoding="utf-8"?>
<!-- Generator: Adobe Illustrator 16.0.0, SVG Export Plug-In . SVG Version: 6.00 Build 0)  -->
<!DOCTYPE svg PUBLIC "-//W3C//DTD SVG 1.1//EN" "http://www.w3.org/Graphics/SVG/1.1/DTD/svg11.dtd">
<svg version="1.1" id="Layer_1" xmlns="http://www.w3.org/2000/svg" xmlns:xlink="http://www.w3.org/1999/xlink" x="0px" y="0px"
	 width="100px" height="100px" viewBox="78 78 100 100" enable-background="new 78 78 100 100" xml:space="preserve">
<g id="Layer_1_1_">
</g>
<g id="Layer_2">
	<g>
		<path fill="#A2DCFF" d="M103.403,177.577c-24.891,0-25.035,0-25.035,0s0-51.161,0-74.986c0-23.826,25.035-24.351,25.035-24.351
			h25.198v74.343C128.602,152.583,128.295,177.577,103.403,177.577z"/>
		<path fill="#7AA5BF" d="M129.477,177.577c-24.893,0-26.274,0-26.274,0s0-51.957,0-75.782c0-23.825,26.274-23.555,26.274-23.555
			h23.959v73.547C153.436,151.787,154.367,177.577,129.477,177.577z"/>
		<path fill="#516E80" d="M153.068,177.577c-24.331,0-24.467,0-24.467,0s0-51.161,0-74.986c0-23.826,24.467-24.351,24.467-24.351
			h24.636v74.343C177.704,152.583,177.4,177.577,153.068,177.577z"/>
	</g>
	<circle display="none" fill="none" stroke="#000000" stroke-miterlimit="10" cx="128.178" cy="127.626" r="49.621"/>
	<g>
		<path fill="#FFFFFF" d="M103.203,118.093v-31.21l10.19,0.017c8.396,0.024,15.686,6.995,15.686,15.593
			c0,8.598-7.356,15.569-15.752,15.593L103.203,118.093z"/>
		<path fill="#FFFFFF" d="M128.602,118.163v26.679h-25.128c0.425,13.546,11.629,24.455,25.422,24.455
			c14.063,0,25.294-11.506,25.294-25.569C154.189,129.683,142.147,118.188,128.602,118.163z"/>
	</g>
</g>
</svg>
