<?xml version="1.0" encoding="utf-8"?>
<!-- Generator: Adobe Illustrator 16.0.0, SVG Export Plug-In . SVG Version: 6.00 Build 0)  -->
<!DOCTYPE svg PUBLIC "-//W3C//DTD SVG 1.1//EN" "http://www.w3.org/Graphics/SVG/1.1/DTD/svg11.dtd">
<svg version="1.1" id="Layer_1" xmlns="http://www.w3.org/2000/svg" xmlns:xlink="http://www.w3.org/1999/xlink" x="0px" y="0px"
	 width="50px" height="50px" viewBox="103 103 50 50" enable-background="new 103 103 50 50" xml:space="preserve">
<g id="Layer_1_1_">
</g>
<g id="Layer_2">
	<g>
		<path fill="#A2DCFF" d="M115.879,152.41c-12.308,0-12.379,0-12.379,0s0-25.299,0-37.08c0-11.782,12.379-12.042,12.379-12.042
			h12.46v36.762C128.34,140.051,128.188,152.41,115.879,152.41z"/>
		<path fill="#7AA5BF" d="M128.772,152.41c-12.309,0-12.992,0-12.992,0s0-25.692,0-37.474s12.992-11.648,12.992-11.648h11.848
			v36.369C140.62,139.657,141.081,152.41,128.772,152.41z"/>
		<path fill="#516E80" d="M140.438,152.41c-12.031,0-12.099,0-12.099,0s0-25.299,0-37.08c0-11.782,12.099-12.042,12.099-12.042
			h12.183v36.762C152.621,140.051,152.471,152.41,140.438,152.41z"/>
	</g>
	<circle display="none" fill="none" stroke="#000000" stroke-miterlimit="10" cx="128.13" cy="127.71" r="24.537"/>
	<g>
		<path fill="#FFFFFF" d="M115.78,122.996v-15.433l5.039,0.008c4.152,0.012,7.757,3.459,7.757,7.711c0,4.251-3.638,7.699-7.79,7.71
			L115.78,122.996z"/>
		<path fill="#FFFFFF" d="M128.34,123.03v13.192h-12.426c0.21,6.698,5.75,12.093,12.571,12.093c6.954,0,12.508-5.689,12.508-12.644
			C140.993,128.727,135.038,123.042,128.34,123.03z"/>
	</g>
</g>
</svg>
