<?xml version="1.0" encoding="utf-8"?>
<!-- Generator: Adobe Illustrator 16.0.0, SVG Export Plug-In . SVG Version: 6.00 Build 0)  -->
<!DOCTYPE svg PUBLIC "-//W3C//DTD SVG 1.1//EN" "http://www.w3.org/Graphics/SVG/1.1/DTD/svg11.dtd">
<svg version="1.1" id="Layer_1" xmlns="http://www.w3.org/2000/svg" xmlns:xlink="http://www.w3.org/1999/xlink" x="0px" y="0px"
	 width="256px" height="256px" viewBox="0 0 256 256" enable-background="new 0 0 256 256" xml:space="preserve">
<g id="Layer_1_1_">
</g>
<g id="Layer_2">
	<g>
		<path fill="#A2DCFF" d="M65.738,253.553c-62.874,0-63.238,0-63.238,0s0-129.233,0-189.416C2.5,3.951,65.738,2.625,65.738,2.625
			h63.651v187.792C129.39,190.417,128.618,253.553,65.738,253.553z"/>
		<path fill="#7AA5BF" d="M131.603,253.553c-62.88,0-66.371,0-66.371,0s0-131.245,0-191.428c0-60.183,66.371-59.5,66.371-59.5h60.52
			v185.783C192.122,188.407,194.478,253.553,131.603,253.553z"/>
		<path fill="#516E80" d="M191.197,253.553c-61.462,0-61.808,0-61.808,0s0-129.233,0-189.416c0-60.186,61.808-61.512,61.808-61.512
			h62.231v187.792C253.429,190.417,252.661,253.553,191.197,253.553z"/>
	</g>
	<circle display="none" fill="none" stroke="#000000" stroke-miterlimit="10" cx="128.322" cy="127.375" r="125.346"/>
	<g>
		<path fill="#FFFFFF" d="M65.232,103.295V24.457L90.974,24.5c21.209,0.061,39.625,17.669,39.625,39.389
			c0,21.718-18.584,39.329-39.793,39.389L65.232,103.295z"/>
		<path fill="#FFFFFF" d="M129.39,103.472v67.389H65.917c1.071,34.217,29.375,61.776,64.217,61.776
			c35.523,0,63.893-29.063,63.893-64.587C194.026,132.569,163.607,103.533,129.39,103.472z"/>
	</g>
</g>
</svg>
